<svg width="10" height="15" viewBox="0 0 10 15" fill="none" xmlns="http://www.w3.org/2000/svg"><path fill-rule="evenodd" clip-rule="evenodd" d="M4.503 2.269c.916 0 1.66.719 1.66 1.603 0 .883-.744 1.602-1.66 1.602-.914 0-1.66-.72-1.66-1.602 0-.884.746-1.603 1.66-1.603zm0 5.473c2.212 0 4.01-1.736 4.01-3.87C8.513 1.737 6.715 0 4.503 0 2.293 0 .493 1.737.493 3.872c0 2.134 1.8 3.87 4.01 3.87zM6.126 10.9a7.663 7.663 0 002.328-.931 1.111 1.111 0 00.369-1.564 1.199 1.199 0 00-1.62-.357 5.246 5.246 0 01-5.4 0 1.198 1.198 0 00-1.619.357c-.346.53-.18 1.23.368 1.564a7.659 7.659 0 002.329.93L.639 13.065a1.107 1.107 0 000 1.604c.23.221.53.332.83.332.302 0 .602-.111.832-.332l2.202-2.127 2.204 2.127a1.204 1.204 0 001.66 0c.46-.443.46-1.161 0-1.604L6.127 10.9z" fill="#fff"/></svg>