<svg width="14" height="11" viewBox="0 0 14 11" fill="none" xmlns="http://www.w3.org/2000/svg"><path fill-rule="evenodd" clip-rule="evenodd" d="M.962 4.735C4.721 3.183 7.226 2.16 8.48 1.665 12.06.253 12.804.008 13.29 0c.106-.002.344.023.499.142.13.1.166.236.183.331.017.095.039.312.022.481-.194 1.933-1.034 6.623-1.46 8.787-.182.916-.537 1.223-.882 1.254-.748.065-1.317-.47-2.042-.92C8.475 9.37 7.834 8.93 6.733 8.243c-1.273-.796-.448-1.233.278-1.947.19-.187 3.488-3.031 3.552-3.29.008-.032.015-.152-.06-.215-.075-.064-.187-.042-.267-.025-.114.025-1.926 1.16-5.438 3.408-.514.335-.98.498-1.398.49-.46-.01-1.345-.248-2.004-.45-.807-.25-1.448-.38-1.393-.803.03-.22.35-.445.96-.676z" fill="#fff"/></svg>