<svg width="15" height="10" viewBox="0 0 15 10" fill="none" xmlns="http://www.w3.org/2000/svg"><path d="M13.348 6.548c1.207 1.17 1.458 1.742 1.499 1.812.498.867-.553.935-.553.935l-2.012.03s-.435.09-1.003-.32c-.754-.54-1.784-1.946-2.336-1.763-.562.185-.383 1.66-.383 1.66s.005.18-.122.325c-.14.152-.412.094-.412.094h-.58s-2.148.009-3.9-1.899C1.637 5.344.04 1.456.04 1.456s-.097-.246.007-.377C.168.93.492.933.492.933h2.153s.201.029.346.141a.677.677 0 01.188.265s.26.724.722 1.558C4.8 4.524 5.22 4.88 5.524 4.704c.444-.255.31-2.299.31-2.299s.01-.743-.224-1.073c-.18-.258-.518-.333-.667-.354-.123-.014.077-.31.335-.44C5.665.34 6.35.325 7.158.335c.63.007.868-.003.868-.003.742.188.491.914.491 2.649 0 .557-.097 1.34.288 1.598.165.115.758.131 1.765-1.662.48-.85.858-1.65.858-1.65s.082-.18.202-.255c.127-.08.294-.08.294-.08l2.266.012s.682-.089.79.234c.116.338-.278.928-1.202 2.22-1.521 2.12-1.69 1.924-.43 3.15z" fill="#fff"/></svg>