<svg width="136" height="44" viewBox="0 0 136 44" fill="none" xmlns="http://www.w3.org/2000/svg">
<path d="M0.89993 41.9909H0.999791C1.09299 41.9909 1.17954 41.9507 1.25943 41.8703C1.33932 41.7899 1.40589 41.6962 1.45915 41.589C1.52573 41.4819 1.57233 41.368 1.59896 41.2475C1.62559 41.1135 1.6389 40.993 1.6389 40.8858V30.1973C1.6389 30.1035 1.62559 29.9963 1.59896 29.8758C1.57233 29.7552 1.52573 29.6414 1.45915 29.5342C1.40589 29.4137 1.33266 29.3199 1.23946 29.253C1.15957 29.1726 1.06637 29.1324 0.959847 29.1324H0.859985V28.9315H4.13543C5.37371 28.9315 6.33904 29.2061 7.03141 29.7552C7.73709 30.3044 8.08994 31.0344 8.08994 31.9452C8.08994 32.3336 8.02336 32.6819 7.89021 32.9899C7.75707 33.298 7.58397 33.5726 7.37094 33.8137C7.17121 34.0548 6.95152 34.2624 6.71185 34.4365C6.47218 34.5973 6.24583 34.7312 6.0328 34.8383C6.59202 34.9455 7.05804 35.1263 7.43085 35.3808C7.80367 35.6353 8.10325 35.93 8.3296 36.2648C8.56927 36.5863 8.73571 36.9345 8.82891 37.3096C8.92211 37.6846 8.96872 38.053 8.96872 38.4146C8.96872 39.1111 8.84222 39.7004 8.58924 40.1826C8.33626 40.6514 7.99673 41.0399 7.57066 41.3479C7.1579 41.6426 6.67856 41.8569 6.13266 41.9909C5.60006 42.1248 5.0475 42.1918 4.47496 42.1918H0.89993V41.9909ZM7.6106 38.5351C7.50408 37.5038 7.1579 36.7068 6.57205 36.1443C5.98619 35.5817 5.16067 35.3004 4.09549 35.3004H2.97704V41.5288H4.13543C5.21393 41.5288 6.05942 41.2877 6.67191 40.8055C7.2977 40.3099 7.6106 39.6268 7.6106 38.7562V38.5351ZM6.79174 32.126C6.7518 31.3492 6.47884 30.733 5.97288 30.2776C5.48023 29.8222 4.81449 29.5945 3.97565 29.5945H2.97704V34.6575H4.0156C4.57482 34.6575 5.02753 34.5839 5.37371 34.4365C5.73321 34.2892 6.01948 34.1017 6.23252 33.874C6.44555 33.6329 6.59202 33.3717 6.67191 33.0904C6.7518 32.8091 6.79174 32.5345 6.79174 32.2667V32.126Z" fill="white"/>
<path d="M11.8698 41.9909H11.9697C12.0762 41.9909 12.1694 41.9574 12.2493 41.8904C12.3292 41.81 12.3958 41.7163 12.449 41.6091C12.5156 41.502 12.5622 41.3881 12.5888 41.2676C12.6288 41.147 12.6488 41.0332 12.6488 40.926V30.1772C12.6488 30.0834 12.6288 29.9762 12.5888 29.8557C12.5622 29.7351 12.5156 29.6213 12.449 29.5141C12.3958 29.407 12.3292 29.3199 12.2493 29.253C12.1694 29.1726 12.0762 29.1324 11.9697 29.1324H11.8698V28.9315H19.5592V30.8H19.3594C19.3328 30.4919 19.213 30.224 18.9999 29.9963C18.7869 29.7552 18.454 29.6347 18.0013 29.6347H13.9869V34.7178H17.3023C17.6085 34.7178 17.8615 34.624 18.0612 34.4365C18.2743 34.249 18.3808 34.028 18.3808 33.7735H18.5805V36.2849H18.3808C18.3808 36.0438 18.2809 35.8362 18.0812 35.6621C17.8815 35.488 17.6218 35.4009 17.3023 35.4009H13.9869V41.4886H18.3608C18.6138 41.4886 18.8335 41.4283 19.0199 41.3078C19.2063 41.1872 19.3594 41.0466 19.4793 40.8858C19.6124 40.7117 19.7056 40.5309 19.7589 40.3434C19.8254 40.1425 19.8587 39.975 19.8587 39.8411H20.0585V42.1918H11.8698V41.9909Z" fill="white"/>
<path d="M29.1288 29.4539C28.1435 29.4539 27.2847 29.6347 26.5524 29.9963C25.8334 30.3446 25.2342 30.8067 24.7549 31.3826C24.2756 31.9452 23.9161 32.5814 23.6764 33.2913C23.45 34.0012 23.3369 34.7044 23.3369 35.4009C23.3369 36.1912 23.49 36.968 23.7962 37.7315C24.1025 38.4816 24.5219 39.1513 25.0545 39.7406C25.6004 40.3166 26.2328 40.7854 26.9518 41.147C27.6708 41.4953 28.4498 41.6694 29.2886 41.6694C29.5283 41.6694 29.8079 41.6426 30.1274 41.589C30.4603 41.5355 30.7865 41.435 31.1061 41.2877C31.4256 41.1269 31.7186 40.9059 31.9848 40.6246C32.2645 40.3434 32.4775 39.975 32.624 39.5196H32.8237V41.7498C32.624 41.7498 32.4109 41.7766 32.1846 41.8301C31.9715 41.8837 31.7319 41.944 31.4656 42.0109C31.1194 42.1047 30.7333 42.1918 30.3072 42.2721C29.8944 42.3525 29.455 42.3927 28.989 42.3927C27.8306 42.3927 26.812 42.1918 25.9333 41.7899C25.0545 41.3881 24.3222 40.8657 23.7363 40.2228C23.1505 39.5799 22.7111 38.8566 22.4181 38.053C22.1252 37.2359 21.9788 36.4122 21.9788 35.5817C21.9788 34.7513 22.1252 33.9275 22.4181 33.1105C22.7111 32.2934 23.1571 31.5635 23.7563 30.9205C24.3555 30.2642 25.1077 29.7351 26.0131 29.3333C26.9186 28.9315 27.9837 28.7306 29.2087 28.7306C29.6481 28.7306 30.0409 28.7708 30.3871 28.8511C30.7466 28.9315 31.0661 29.0119 31.3457 29.0922C31.5455 29.1592 31.7252 29.2128 31.885 29.253C32.0581 29.2797 32.2245 29.2931 32.3843 29.2931V31.5233H32.1846C32.1047 31.1081 31.9582 30.7665 31.7452 30.4986C31.5321 30.2173 31.2792 30.003 30.9862 29.8557C30.7066 29.7084 30.4004 29.6079 30.0675 29.5543C29.748 29.4874 29.4351 29.4539 29.1288 29.4539Z" fill="white"/>
<path d="M43.7095 41.9909H43.8093C43.9025 41.9909 43.9891 41.9574 44.069 41.8904C44.1489 41.81 44.2155 41.7163 44.2687 41.6091C44.3353 41.4886 44.3819 41.368 44.4085 41.2475C44.4351 41.1135 44.4485 40.993 44.4485 40.8858V35.421H38.0573V40.8858C38.0573 40.993 38.0707 41.1135 38.0973 41.2475C38.1239 41.368 38.1639 41.4819 38.2171 41.589C38.2704 41.6962 38.3303 41.7899 38.3969 41.8703C38.4768 41.9507 38.57 41.9909 38.6765 41.9909H38.7763V42.1918H35.9802V41.9909H36.0801C36.1733 41.9909 36.2598 41.9574 36.3397 41.8904C36.4196 41.81 36.4862 41.7163 36.5395 41.6091C36.606 41.4886 36.6526 41.368 36.6793 41.2475C36.7059 41.1135 36.7192 40.993 36.7192 40.8858V30.1772C36.7192 30.0834 36.7059 29.9762 36.6793 29.8557C36.6526 29.7351 36.6127 29.6213 36.5594 29.5141C36.5062 29.407 36.4396 29.3199 36.3597 29.253C36.2798 29.1726 36.1866 29.1324 36.0801 29.1324H35.9802V28.9315H38.7763V29.1324H38.6765C38.57 29.1324 38.4768 29.1726 38.3969 29.253C38.317 29.3199 38.2504 29.407 38.1971 29.5141C38.1572 29.6213 38.1239 29.7351 38.0973 29.8557C38.0707 29.9762 38.0573 30.0834 38.0573 30.1772V34.7178H44.4485V30.1772C44.4485 30.0834 44.4351 29.9762 44.4085 29.8557C44.3819 29.7351 44.3419 29.6213 44.2887 29.5141C44.2354 29.407 44.1688 29.3199 44.089 29.253C44.0091 29.1726 43.9159 29.1324 43.8093 29.1324H43.7095V28.9315H46.5056V29.1324H46.4057C46.2992 29.1324 46.206 29.1726 46.1261 29.253C46.0462 29.3199 45.9797 29.407 45.9264 29.5141C45.8865 29.6213 45.8532 29.7351 45.8265 29.8557C45.7999 29.9762 45.7866 30.0834 45.7866 30.1772V40.8858C45.7866 40.993 45.7999 41.1135 45.8265 41.2475C45.8665 41.368 45.9131 41.4819 45.9664 41.589C46.0196 41.6962 46.0795 41.7899 46.1461 41.8703C46.226 41.9507 46.3125 41.9909 46.4057 41.9909H46.5056V42.1918H43.7095V41.9909Z" fill="white"/>
<path d="M56.9924 41.9909H57.0923C57.4118 41.9909 57.5716 41.8435 57.5716 41.5488C57.5716 41.4417 57.5517 41.3278 57.5117 41.2073L55.7142 36.3251H52.2191L50.4815 41.1269C50.4415 41.2341 50.4216 41.3345 50.4216 41.4283C50.4216 41.6024 50.4682 41.7431 50.5614 41.8502C50.6546 41.944 50.7544 41.9909 50.861 41.9909H50.9608V42.1918H48.7439V41.9909H48.8438C49.0168 41.9909 49.1833 41.8904 49.3431 41.6895C49.5162 41.4752 49.656 41.2274 49.7625 40.9461L54.3361 28.6904L58.8099 40.8256C58.9031 41.0934 59.0296 41.3546 59.1894 41.6091C59.3625 41.8636 59.5822 41.9909 59.8485 41.9909H59.9483V42.1918H56.9924V41.9909ZM52.4188 35.642H55.4945L53.9566 31.4429L52.4188 35.642Z" fill="white"/>
<path d="M68.7283 41.9909H68.8282C68.9214 41.9909 69.0079 41.9507 69.0878 41.8703C69.1677 41.7899 69.2343 41.6962 69.2875 41.589C69.3541 41.4819 69.4007 41.368 69.4273 41.2475C69.454 41.1135 69.4673 40.993 69.4673 40.8858V30.1973C69.4673 30.1035 69.454 29.9963 69.4273 29.8758C69.4007 29.7552 69.3541 29.6414 69.2875 29.5342C69.2343 29.4137 69.161 29.3199 69.0678 29.253C68.9879 29.1726 68.8947 29.1324 68.7882 29.1324H68.6884V28.9315H71.9638C73.2021 28.9315 74.1674 29.2061 74.8598 29.7552C75.5655 30.3044 75.9183 31.0344 75.9183 31.9452C75.9183 32.3336 75.8517 32.6819 75.7186 32.9899C75.5854 33.298 75.4123 33.5726 75.1993 33.8137C74.9996 34.0548 74.7799 34.2624 74.5402 34.4365C74.3006 34.5973 74.0742 34.7312 73.8612 34.8383C74.4204 34.9455 74.8864 35.1263 75.2592 35.3808C75.632 35.6353 75.9316 35.93 76.158 36.2648C76.3976 36.5863 76.5641 36.9345 76.6573 37.3096C76.7505 37.6846 76.7971 38.053 76.7971 38.4146C76.7971 39.1111 76.6706 39.7004 76.4176 40.1826C76.1646 40.6514 75.8251 41.0399 75.399 41.3479C74.9863 41.6426 74.5069 41.8569 73.961 41.9909C73.4284 42.1248 72.8759 42.1918 72.3033 42.1918H68.7283V41.9909ZM75.439 38.5351C75.3325 37.5038 74.9863 36.7068 74.4004 36.1443C73.8146 35.5817 72.989 35.3004 71.9239 35.3004H70.8054V41.5288H71.9638C73.0423 41.5288 73.8878 41.2877 74.5003 40.8055C75.1261 40.3099 75.439 39.6268 75.439 38.7562V38.5351ZM74.6201 32.126C74.5802 31.3492 74.3072 30.733 73.8013 30.2776C73.3086 29.8222 72.6429 29.5945 71.804 29.5945H70.8054V34.6575H71.844C72.4032 34.6575 72.8559 34.5839 73.2021 34.4365C73.5616 34.2892 73.8478 34.1017 74.0609 33.874C74.2739 33.6329 74.4204 33.3717 74.5003 33.0904C74.5802 32.8091 74.6201 32.5345 74.6201 32.2667V32.126Z" fill="white"/>
<path d="M86.0263 29.4539C85.041 29.4539 84.1822 29.6347 83.4499 29.9963C82.7309 30.3446 82.1317 30.8067 81.6524 31.3826C81.173 31.9452 80.8135 32.5814 80.5739 33.2913C80.3475 34.0012 80.2343 34.7044 80.2343 35.4009C80.2343 36.1912 80.3875 36.968 80.6937 37.7315C80.9999 38.4816 81.4194 39.1513 81.952 39.7406C82.4979 40.3166 83.1303 40.7854 83.8493 41.147C84.5683 41.4953 85.3472 41.6694 86.1861 41.6694C86.4257 41.6694 86.7054 41.6426 87.0249 41.589C87.3578 41.5355 87.684 41.435 88.0035 41.2877C88.3231 41.1269 88.616 40.9059 88.8823 40.6246C89.1619 40.3434 89.375 39.975 89.5214 39.5196H89.7212V41.7498C89.5214 41.7498 89.3084 41.7766 89.082 41.8301C88.869 41.8837 88.6293 41.944 88.363 42.0109C88.0169 42.1047 87.6307 42.1918 87.2047 42.2721C86.7919 42.3525 86.3525 42.3927 85.8865 42.3927C84.7281 42.3927 83.7095 42.1918 82.8307 41.7899C81.952 41.3881 81.2196 40.8657 80.6338 40.2228C80.0479 39.5799 79.6085 38.8566 79.3156 38.053C79.0227 37.2359 78.8762 36.4122 78.8762 35.5817C78.8762 34.7513 79.0227 33.9275 79.3156 33.1105C79.6085 32.2934 80.0546 31.5635 80.6538 30.9205C81.2529 30.2642 82.0052 29.7351 82.9106 29.3333C83.816 28.9315 84.8812 28.7306 86.1062 28.7306C86.5456 28.7306 86.9384 28.7708 87.2845 28.8511C87.644 28.9315 87.9636 29.0119 88.2432 29.0922C88.4429 29.1592 88.6227 29.2128 88.7825 29.253C88.9556 29.2797 89.122 29.2931 89.2818 29.2931V31.5233H89.082C89.0022 31.1081 88.8557 30.7665 88.6427 30.4986C88.4296 30.2173 88.1766 30.003 87.8837 29.8557C87.6041 29.7084 87.2979 29.6079 86.965 29.5543C86.6454 29.4874 86.3325 29.4539 86.0263 29.4539Z" fill="white"/>
<path d="M92.638 41.9909H92.7379C92.8444 41.9909 92.9376 41.9574 93.0175 41.8904C93.0974 41.81 93.164 41.7163 93.2172 41.6091C93.2838 41.502 93.3304 41.3881 93.357 41.2676C93.397 41.147 93.417 41.0332 93.417 40.926V30.1772C93.417 30.0834 93.397 29.9762 93.357 29.8557C93.3304 29.7351 93.2838 29.6213 93.2172 29.5141C93.164 29.407 93.0974 29.3199 93.0175 29.253C92.9376 29.1726 92.8444 29.1324 92.7379 29.1324H92.638V28.9315H100.327V30.8H100.128C100.101 30.4919 99.9812 30.224 99.7681 29.9963C99.5551 29.7552 99.2222 29.6347 98.7695 29.6347H94.7551V34.7178H98.0705C98.3767 34.7178 98.6297 34.624 98.8294 34.4365C99.0425 34.249 99.149 34.028 99.149 33.7735H99.3487V36.2849H99.149C99.149 36.0438 99.0491 35.8362 98.8494 35.6621C98.6497 35.488 98.39 35.4009 98.0705 35.4009H94.7551V41.4886H99.129C99.382 41.4886 99.6017 41.4283 99.7881 41.3078C99.9745 41.1872 100.128 41.0466 100.247 40.8858C100.381 40.7117 100.474 40.5309 100.527 40.3434C100.594 40.1425 100.627 39.975 100.627 39.8411H100.827V42.1918H92.638V41.9909Z" fill="white"/>
<path d="M106.306 41.9909H106.406V42.1918H103.53V41.9909H103.63C103.736 41.9909 103.83 41.9574 103.909 41.8904C103.989 41.81 104.056 41.7163 104.109 41.6091C104.176 41.502 104.222 41.3881 104.249 41.2676C104.276 41.147 104.289 41.0332 104.289 40.926V30.1772C104.289 30.0834 104.276 29.9762 104.249 29.8557C104.222 29.7351 104.176 29.6213 104.109 29.5141C104.056 29.407 103.989 29.3199 103.909 29.253C103.83 29.1726 103.736 29.1324 103.63 29.1324H103.53V28.9315H111.219V31.0612H111.02C111.02 30.579 110.913 30.224 110.7 29.9963C110.5 29.7552 110.181 29.6347 109.741 29.6347H105.647V40.926C105.647 41.0332 105.66 41.147 105.687 41.2676C105.714 41.3881 105.754 41.502 105.807 41.6091C105.873 41.7163 105.947 41.81 106.026 41.8904C106.106 41.9574 106.2 41.9909 106.306 41.9909Z" fill="white"/>
<path d="M122.453 41.4886V44H122.253C122.24 43.8259 122.193 43.6316 122.113 43.4173C122.033 43.203 121.92 43.0021 121.774 42.8146C121.641 42.6405 121.481 42.4931 121.294 42.3726C121.108 42.252 120.902 42.1918 120.675 42.1918H111.468C111.242 42.1918 111.035 42.252 110.849 42.3726C110.663 42.5065 110.496 42.6606 110.35 42.8347C110.217 43.0222 110.103 43.2231 110.01 43.4374C109.93 43.6517 109.884 43.8393 109.87 44H109.671V41.4886H110.549C110.975 41.4886 111.275 41.2408 111.448 40.7452L116.042 28.6301L120.675 40.6849C120.769 40.8858 120.895 41.0734 121.055 41.2475C121.215 41.4082 121.401 41.4886 121.614 41.4886H122.453ZM111.888 41.4886H119.577L115.722 31.5032L111.888 41.4886Z" fill="white"/>
<path d="M132.904 41.9909H133.004C133.324 41.9909 133.483 41.8435 133.483 41.5488C133.483 41.4417 133.463 41.3278 133.423 41.2073L131.626 36.3251H128.131L126.393 41.1269C126.353 41.2341 126.333 41.3345 126.333 41.4283C126.333 41.6024 126.38 41.7431 126.473 41.8502C126.566 41.944 126.666 41.9909 126.773 41.9909H126.872V42.1918H124.656V41.9909H124.755C124.929 41.9909 125.095 41.8904 125.255 41.6895C125.428 41.4752 125.568 41.2274 125.674 40.9461L130.248 28.6904L134.722 40.8256C134.815 41.0934 134.941 41.3546 135.101 41.6091C135.274 41.8636 135.494 41.9909 135.76 41.9909H135.86V42.1918H132.904V41.9909ZM128.33 35.642H131.406L129.868 31.4429L128.33 35.642Z" fill="white"/>
<path fill-rule="evenodd" clip-rule="evenodd" d="M69.0084 18.8196C68.0982 18.9287 62.9805 19.3765 60.1255 16.0987C56.9838 12.4918 57.7716 5.73931 57.7716 5.73931C57.7716 5.73931 60.9932 5.24388 63.9415 6.44857C65.108 2.71877 68.3404 0 68.3404 0C68.3404 0 71.9162 3.00762 72.9032 7.03584C76.0936 5.10086 80.2453 5.73931 80.2453 5.73931C80.2453 5.73931 81.0331 12.4918 77.8914 16.0987C75.0363 19.3765 69.9187 18.9287 69.0084 18.8196ZM69.9439 14.8367C71.0933 13.2735 72.1543 11.2249 72.1543 9.0411C72.1543 8.99565 72.1539 8.95026 72.153 8.90494C72.0594 8.99858 71.9683 9.09599 71.88 9.19732C70.5448 10.7303 69.9895 12.998 69.7974 15.0327C69.8462 14.9685 69.895 14.9031 69.9439 14.8367ZM69.0084 13.819C68.7188 11.9546 68.0915 9.93033 66.7949 8.44176C66.2215 7.7834 65.5567 7.27534 64.8532 6.88465C65.2545 5.52671 65.9764 4.27982 66.737 3.2455C67.3036 2.47501 67.8716 1.84972 68.2974 1.41799L68.3404 1.37453L68.3834 1.41799C68.8092 1.84972 69.3773 2.47501 69.9439 3.2455C70.848 4.47497 71.6973 6.00478 72.0187 7.66443C71.7387 7.89685 71.4717 8.15505 71.2219 8.44176C69.9254 9.93033 69.298 11.9546 69.0084 13.819ZM73.1006 8.13159C74.2936 7.33772 75.7082 6.95752 77.009 6.8006C77.885 6.69493 78.6716 6.69509 79.2388 6.72195C79.2886 6.7243 79.3366 6.72686 79.3827 6.72957C79.3851 6.78256 79.3873 6.83766 79.3894 6.89478C79.4128 7.54597 79.4129 8.44905 79.3209 9.45475C79.1334 11.503 78.5801 13.7968 77.2332 15.3432C75.8864 16.8895 73.8884 17.5247 72.1043 17.7399C71.2283 17.8455 70.4417 17.8454 69.8745 17.8185L69.808 17.8152L69.7306 17.8109C69.7282 17.7579 69.726 17.7028 69.7239 17.6457C69.7142 17.3741 69.7085 17.0587 69.7118 16.7103C71.1343 15.1123 73.1529 12.275 73.1529 9.0411C73.1529 8.73411 73.1348 8.4307 73.1006 8.13159ZM66.1368 9.19732C65.6902 8.68452 65.1719 8.27193 64.6136 7.94163C64.5571 8.30307 64.5265 8.67014 64.5265 9.0411C64.5265 11.2249 65.5875 13.2735 66.737 14.8367C67.3036 15.6072 67.8716 16.2325 68.2974 16.6642L68.3047 16.6715C68.2992 16.1942 68.2767 15.6565 68.2244 15.0857C68.037 13.0375 67.4837 10.7436 66.1368 9.19732ZM63.5279 9.0411C63.5279 8.50751 63.5828 7.98473 63.681 7.47652C62.8064 7.11207 61.8815 6.90598 61.0079 6.8006C60.1319 6.69493 59.3453 6.69509 58.778 6.72195C58.7283 6.7243 58.6803 6.72686 58.6341 6.72957C58.6318 6.78256 58.6296 6.83766 58.6275 6.89478C58.6041 7.54597 58.604 8.44905 58.696 9.45475C58.8835 11.503 59.4367 13.7968 60.7836 15.3432C62.1305 16.8895 64.1285 17.5247 65.9126 17.7399C66.7426 17.84 67.4924 17.8451 68.0514 17.8225C67.0123 16.8541 63.5279 13.2899 63.5279 9.0411Z" fill="white"/>
<path d="M1.99841 11.5525H46.9359V12.5571H1.99841V11.5525Z" fill="white"/>
<path d="M135.812 11.5525L89.8763 11.5525V12.5571L135.812 12.5571V11.5525Z" fill="white"/>
</svg>
