<svg width="15" height="10" viewBox="0 0 15 10" fill="none" xmlns="http://www.w3.org/2000/svg">
<path d="M13.3482 6.54834C14.5548 7.71772 14.8061 8.28953 14.8468 8.35983C15.3449 9.22691 14.2945 9.29487 14.2945 9.29487L12.2819 9.32533C12.2819 9.32533 11.8472 9.41438 11.279 9.00428C10.5252 8.46528 9.49512 7.05921 8.94274 7.242C8.38131 7.42713 8.56015 8.90117 8.56015 8.90117C8.56015 8.90117 8.56468 9.08161 8.4379 9.22691C8.29755 9.37923 8.02588 9.32064 8.02588 9.32064H7.44634C7.44634 9.32064 5.29796 9.33002 3.54574 7.42245C1.63733 5.3438 0.0413201 1.45601 0.0413201 1.45601C0.0413201 1.45601 -0.0560247 1.20995 0.0481117 1.07871C0.168095 0.931077 0.491824 0.93342 0.491824 0.93342H2.64474C2.64474 0.93342 2.84622 0.961542 2.9911 1.07403C3.11335 1.16542 3.179 1.33884 3.179 1.33884C3.179 1.33884 3.43934 2.06297 3.90117 2.89724C4.79991 4.52359 5.21872 4.8798 5.52434 4.70404C5.96805 4.4486 5.83449 2.40511 5.83449 2.40511C5.83449 2.40511 5.84354 1.66223 5.61037 1.33181C5.42926 1.07403 5.09195 0.999037 4.94253 0.977946C4.82029 0.963885 5.0195 0.66861 5.27758 0.537377C5.6647 0.340526 6.35064 0.326466 7.15883 0.33584C7.78818 0.34287 8.02588 0.333496 8.02588 0.333496C8.76842 0.520972 8.51714 1.24744 8.51714 2.9816C8.51714 3.53934 8.41979 4.32206 8.80465 4.57984C8.96991 4.69466 9.56303 4.71107 10.5704 2.91833C11.0504 2.06765 11.4284 1.26853 11.4284 1.26853C11.4284 1.26853 11.5099 1.08809 11.6299 1.0131C11.7567 0.93342 11.9242 0.93342 11.9242 0.93342L14.1903 0.945138C14.1903 0.945138 14.8717 0.856087 14.9804 1.17948C15.0959 1.51694 14.702 2.10749 13.7783 3.39873C12.257 5.51956 12.0872 5.32271 13.3482 6.54834Z" fill="white"/>
</svg>
