<svg width="37" height="56" viewBox="0 0 37 56" fill="none" xmlns="http://www.w3.org/2000/svg">
<path d="M18.363 9.4649V18.9297H19.3552V9.4649H18.363Z" fill="white"/>
<path fill-rule="evenodd" clip-rule="evenodd" d="M0.859131 18.1408C0.859131 8.12193 8.91801 0 18.8591 0C28.8003 0 36.8591 8.12193 36.8591 18.1408V37.8592C36.8591 47.8781 28.8003 56 18.8591 56C8.91801 56 0.859131 47.8781 0.859131 37.8592V18.1408ZM35.8669 18.1408V37.8592C35.8669 47.3258 28.2523 55 18.8591 55C9.466 55 1.85137 47.3258 1.85137 37.8592V18.1408C1.85137 8.67422 9.466 1 18.8591 1C28.2523 1 35.8669 8.67422 35.8669 18.1408Z" fill="white"/>
</svg>
