<svg width="10" height="15" viewBox="0 0 10 15" fill="none" xmlns="http://www.w3.org/2000/svg">
<path fill-rule="evenodd" clip-rule="evenodd" d="M4.50347 2.2688C5.41916 2.2688 6.16378 2.98778 6.16378 3.87177C6.16378 4.75486 5.41916 5.47391 4.50347 5.47391C3.58874 5.47391 2.84319 4.75486 2.84319 3.87177C2.84319 2.98778 3.58874 2.2688 4.50347 2.2688ZM4.50347 7.7418C6.71533 7.7418 8.51338 6.00592 8.51338 3.87177C8.51338 1.7366 6.71533 0 4.50347 0C2.29212 0 0.49359 1.7366 0.49359 3.87177C0.49359 6.00592 2.29212 7.7418 4.50347 7.7418ZM6.12582 10.8999C6.94213 10.7202 7.72941 10.4085 8.45433 9.9687C9.0031 9.63483 9.1685 8.93461 8.82267 8.40485C8.47729 7.8739 7.75237 7.71419 7.20267 8.04807C5.56019 9.04535 3.44536 9.04491 1.80382 8.04807C1.25414 7.71419 0.529196 7.8739 0.184298 8.40485C-0.161535 8.93496 0.003416 9.63483 0.552157 9.9687C1.2771 10.408 2.06436 10.7202 2.88069 10.8999L0.638843 13.064C0.180555 13.5069 0.180555 14.2249 0.639323 14.6678C0.868935 14.889 1.16933 14.9999 1.46969 14.9999C1.77054 14.9999 2.07139 14.889 2.30102 14.6678L4.50302 12.5411L6.70688 14.6678C7.16519 15.1107 7.90888 15.1107 8.36764 14.6678C8.82689 14.2249 8.82689 13.5066 8.36764 13.064L6.12582 10.8999Z" fill="white"/>
</svg>
