<svg width="136" height="44" viewBox="0 0 136 44" fill="none" xmlns="http://www.w3.org/2000/svg"><path d="M.9 41.99H1c.093 0 .18-.04.26-.12.08-.08.146-.174.2-.281a1.11 1.11 0 00.139-.341 1.85 1.85 0 00.04-.362V30.197a1.51 1.51 0 00-.04-.321 1.088 1.088 0 00-.14-.342.67.67 0 00-.22-.281.382.382 0 00-.28-.12H.86v-.201h3.275c1.239 0 2.204.274 2.896.823.706.55 1.059 1.28 1.059 2.19 0 .389-.067.737-.2 1.045a3.079 3.079 0 01-.52.824c-.199.24-.418.448-.658.623-.24.16-.466.294-.68.401.56.108 1.026.288 1.399.543.373.254.672.549.899.884.24.321.406.67.499 1.045.093.375.14.743.14 1.105 0 .696-.127 1.285-.38 1.768a3.426 3.426 0 01-1.018 1.165 4.149 4.149 0 01-1.438.643 6.77 6.77 0 01-1.658.2H.9v-.2zm6.71-3.455c-.106-1.031-.452-1.828-1.038-2.39-.586-.563-1.411-.845-2.477-.845H2.977v6.229h1.158c1.079 0 1.924-.241 2.537-.724.626-.495.939-1.178.939-2.049v-.22zm-.818-6.409c-.04-.777-.313-1.393-.82-1.848-.492-.456-1.158-.683-1.996-.683h-.999v5.063h1.039c.559 0 1.012-.074 1.358-.221.36-.148.645-.335.859-.563.213-.241.359-.502.439-.784.08-.28.12-.556.12-.823v-.141zm5.078 9.864h.1c.106 0 .2-.033.28-.1.08-.08.146-.174.199-.28.067-.108.113-.222.14-.342.04-.121.06-.235.06-.342V30.177c0-.094-.02-.2-.06-.321a1.087 1.087 0 00-.14-.342.797.797 0 00-.2-.261.382.382 0 00-.28-.12h-.1v-.201h7.69V30.8h-.2a1.31 1.31 0 00-.36-.804c-.212-.24-.545-.361-.998-.361h-4.014v5.083h3.315c.306 0 .56-.094.76-.282.212-.187.319-.408.319-.663h.2v2.512h-.2a.8.8 0 00-.3-.623c-.2-.174-.46-.261-.779-.261h-3.315v6.088h4.374c.253 0 .473-.06.659-.181.186-.12.34-.261.46-.422.132-.174.226-.355.279-.543.066-.2.1-.368.1-.502h.2v2.35h-8.19v-.2zm17.259-12.536c-.986 0-1.844.18-2.577.542a5.319 5.319 0 00-1.797 1.387 5.753 5.753 0 00-1.079 1.908 6.914 6.914 0 00-.34 2.11c0 .79.154 1.567.46 2.33.306.75.726 1.42 1.259 2.01a6.805 6.805 0 001.897 1.406 5.289 5.289 0 002.337.522c.24 0 .519-.026.838-.08.333-.053.66-.154.98-.301.319-.161.612-.382.878-.663.28-.282.492-.65.639-1.105h.2v2.23c-.2 0-.413.027-.64.08l-.718.18c-.347.095-.733.182-1.159.262a6.89 6.89 0 01-1.318.12c-1.158 0-2.177-.2-3.056-.602-.878-.402-1.61-.924-2.197-1.567a6.501 6.501 0 01-1.318-2.17 7.277 7.277 0 01-.44-2.471c0-.83.147-1.654.44-2.471a6.302 6.302 0 011.338-2.19c.6-.657 1.352-1.186 2.257-1.588.906-.401 1.97-.602 3.196-.602.44 0 .832.04 1.178.12.36.08.68.16.959.241.2.067.38.12.539.161.173.027.34.04.5.04v2.23h-.2c-.08-.415-.227-.756-.44-1.024a2.171 2.171 0 00-.759-.643 2.969 2.969 0 00-.919-.302 4.557 4.557 0 00-.938-.1zM43.71 41.99h.1c.093 0 .18-.033.259-.1.08-.08.146-.174.2-.28a1.4 1.4 0 00.14-.362 1.93 1.93 0 00.04-.362V35.42h-6.392v5.465c0 .107.014.227.04.361a1.484 1.484 0 00.3.623c.08.08.173.12.28.12h.1v.202H35.98v-.201h.1c.093 0 .18-.034.26-.1.08-.081.146-.175.2-.282a1.38 1.38 0 00.14-.361 1.93 1.93 0 00.04-.362V30.177c0-.094-.014-.2-.04-.321a1.485 1.485 0 00-.12-.342.797.797 0 00-.2-.261.382.382 0 00-.28-.12h-.1v-.201h2.796v.2h-.1c-.106 0-.2.04-.28.121a.798.798 0 00-.199.261c-.04.107-.073.221-.1.342-.026.12-.04.227-.04.321v4.54h6.392v-4.54c0-.094-.014-.2-.04-.321a1.484 1.484 0 00-.12-.342.8.8 0 00-.2-.261.382.382 0 00-.28-.12h-.1v-.201h2.797v.2h-.1a.38.38 0 00-.28.121.798.798 0 00-.2.261c-.04.107-.073.221-.1.342-.026.12-.04.227-.04.321v10.709c0 .107.014.227.04.361.04.121.087.235.14.342.054.107.114.2.18.281.08.08.166.12.26.12h.1v.202h-2.797v-.201zm13.282 0h.1c.32 0 .48-.147.48-.441 0-.107-.02-.221-.06-.342l-1.798-4.882H52.22l-1.738 4.802a.864.864 0 00-.06.301.62.62 0 00.14.422c.094.094.193.14.3.14h.1v.202h-2.217v-.201h.1c.173 0 .34-.1.5-.301.172-.215.312-.463.419-.744l4.573-12.256 4.474 12.136c.093.267.22.529.38.783.172.255.392.382.659.382h.1v.2h-2.957v-.2zm-4.573-6.348h3.076l-1.538-4.2-1.538 4.2zm16.309 6.348h.1c.093 0 .18-.04.26-.12.08-.08.146-.174.2-.281.066-.107.113-.221.14-.341a1.93 1.93 0 00.04-.362V30.197c0-.093-.014-.2-.04-.321a1.087 1.087 0 00-.14-.342.67.67 0 00-.22-.281.382.382 0 00-.28-.12h-.1v-.201h3.276c1.238 0 2.203.274 2.896.823.706.55 1.058 1.28 1.058 2.19 0 .389-.066.737-.2 1.045a3.081 3.081 0 01-.519.824c-.2.24-.42.448-.659.623-.24.16-.466.294-.679.401.56.108 1.025.288 1.398.543.373.254.673.549.899.884.24.321.406.67.5 1.045.093.375.14.743.14 1.105 0 .696-.127 1.285-.38 1.768a3.425 3.425 0 01-1.019 1.165 4.148 4.148 0 01-1.438.643 6.77 6.77 0 01-1.658.2h-3.575v-.2zm6.711-3.455c-.106-1.031-.453-1.828-1.039-2.39-.585-.563-1.411-.845-2.476-.845h-1.119v6.229h1.159c1.078 0 1.924-.241 2.536-.724.626-.495.939-1.178.939-2.049v-.22zm-.819-6.409c-.04-.777-.313-1.393-.819-1.848-.492-.456-1.158-.683-1.997-.683h-.999v5.063h1.039c.56 0 1.012-.074 1.358-.221.36-.148.646-.335.859-.563.213-.241.36-.502.44-.784.08-.28.12-.556.12-.823v-.141zm11.406-2.672c-.985 0-1.844.18-2.576.542a5.319 5.319 0 00-1.798 1.387 5.75 5.75 0 00-1.078 1.908 6.914 6.914 0 00-.34 2.11c0 .79.154 1.567.46 2.33a6.81 6.81 0 001.258 2.01 6.805 6.805 0 001.897 1.406 5.289 5.289 0 002.337.522c.24 0 .52-.026.839-.08.333-.053.659-.154.978-.301a3.19 3.19 0 00.88-.663c.279-.282.492-.65.638-1.105h.2v2.23c-.2 0-.413.027-.639.08l-.719.18c-.346.095-.732.182-1.158.262a6.89 6.89 0 01-1.319.12c-1.158 0-2.176-.2-3.055-.602-.879-.402-1.611-.924-2.197-1.567a6.498 6.498 0 01-1.318-2.17 7.277 7.277 0 01-.44-2.471c0-.83.147-1.654.44-2.471a6.301 6.301 0 011.338-2.19c.599-.657 1.351-1.186 2.257-1.588.905-.401 1.97-.602 3.195-.602.44 0 .832.04 1.178.12.36.08.68.16.96.241.199.067.379.12.538.161.174.027.34.04.5.04v2.23h-.2c-.08-.415-.226-.756-.44-1.024a2.172 2.172 0 00-.758-.643 2.969 2.969 0 00-.919-.302c-.32-.067-.633-.1-.939-.1zm6.612 12.536h.1c.106 0 .2-.033.28-.1.08-.08.146-.174.2-.28.066-.108.112-.222.139-.342.04-.121.06-.235.06-.342V30.177c0-.094-.02-.2-.06-.321a1.087 1.087 0 00-.14-.342.797.797 0 00-.2-.261.382.382 0 00-.28-.12h-.099v-.201h7.689V30.8h-.199a1.313 1.313 0 00-.36-.804c-.213-.24-.546-.361-.999-.361h-4.014v5.083h3.316c.306 0 .559-.094.758-.282.214-.187.32-.408.32-.663h.2v2.512h-.2a.8.8 0 00-.3-.623c-.2-.174-.459-.261-.779-.261h-3.315v6.088h4.374c.253 0 .473-.06.66-.181.186-.12.339-.261.458-.422a1.6 1.6 0 00.28-.543c.067-.2.1-.368.1-.502h.2v2.35h-8.189v-.2zm13.668 0h.1v.202h-2.876v-.201h.1a.42.42 0 00.279-.1c.08-.081.147-.175.2-.282.067-.107.113-.22.14-.341.027-.121.04-.235.04-.342V30.177c0-.094-.013-.2-.04-.321a1.087 1.087 0 00-.14-.342.794.794 0 00-.2-.261.38.38 0 00-.279-.12h-.1v-.201h7.689v2.13h-.199c0-.483-.107-.838-.32-1.066-.2-.24-.519-.361-.959-.361h-4.094v11.291a1.564 1.564 0 00.16.683c.066.107.14.201.219.281.08.067.174.1.28.1zm16.147-.501V44h-.2a2.148 2.148 0 00-.14-.583 2.269 2.269 0 00-.339-.602 1.881 1.881 0 00-.48-.442 1.113 1.113 0 00-.619-.181h-9.207c-.226 0-.433.06-.619.18a2.731 2.731 0 00-.499.463 3.334 3.334 0 00-.34.602c-.08.215-.126.402-.14.563h-.199v-2.511h.878c.426 0 .726-.248.899-.744l4.594-12.115 4.633 12.055c.094.2.22.388.38.563.16.16.346.24.559.24h.839zm-10.565 0h7.689l-3.855-9.986-3.834 9.986zm21.016.501h.1c.32 0 .479-.147.479-.441 0-.107-.02-.221-.06-.342l-1.797-4.882h-3.495l-1.738 4.802a.864.864 0 00-.06.301.62.62 0 00.14.422c.093.094.193.14.3.14h.099v.202h-2.216v-.201h.099c.174 0 .34-.1.5-.301.173-.215.313-.463.419-.744l4.574-12.256 4.474 12.136c.093.267.219.529.379.783.173.255.393.382.659.382h.1v.2h-2.956v-.2zm-4.574-6.348h3.076l-1.538-4.2-1.538 4.2z" fill="#fff"/><path fill-rule="evenodd" clip-rule="evenodd" d="M69.008 18.82c-.91.109-6.027.556-8.882-2.721-3.142-3.607-2.354-10.36-2.354-10.36s3.221-.495 6.17.71C65.108 2.719 68.34 0 68.34 0s3.576 3.008 4.563 7.036c3.19-1.935 7.342-1.297 7.342-1.297s.788 6.753-2.354 10.36c-2.855 3.277-7.972 2.83-8.883 2.72zm.936-3.983c1.15-1.563 2.21-3.612 2.21-5.796l-.001-.136a5.849 5.849 0 00-.273.292c-1.335 1.533-1.89 3.801-2.083 5.836.05-.064.098-.13.147-.196zm-.936-1.018c-.29-1.864-.916-3.889-2.213-5.377a7.167 7.167 0 00-1.942-1.557c.401-1.358 1.123-2.605 1.884-3.64a16.87 16.87 0 011.56-1.827l.043-.043.043.043a16.87 16.87 0 011.56 1.827c.905 1.23 1.754 2.76 2.076 4.42a6.9 6.9 0 00-.797.777c-1.297 1.488-1.924 3.513-2.214 5.377zm4.093-5.687c1.193-.794 2.607-1.174 3.908-1.331a13.523 13.523 0 012.374-.071l.006.165c.024.651.024 1.554-.068 2.56-.188 2.048-.74 4.342-2.088 5.888-1.347 1.547-3.345 2.182-5.129 2.397-.876.106-1.662.105-2.23.079l-.066-.004-.077-.004a19.551 19.551 0 01-.02-1.1c1.423-1.599 3.442-4.436 3.442-7.67 0-.307-.018-.61-.052-.91zm-6.964 1.065a6.17 6.17 0 00-1.523-1.255 7.115 7.115 0 00-.088 1.1c0 2.183 1.062 4.232 2.211 5.795.567.77 1.135 1.396 1.56 1.827l.008.008a19.971 19.971 0 00-.08-1.586c-.188-2.049-.741-4.342-2.088-5.889zm-2.61-.156c0-.533.056-1.056.154-1.564-.875-.365-1.8-.571-2.673-.676a13.523 13.523 0 00-2.374-.071l-.007.165c-.023.651-.023 1.554.069 2.56.188 2.048.74 4.342 2.088 5.888 1.346 1.547 3.345 2.182 5.129 2.397.83.1 1.58.105 2.138.083-1.039-.969-4.523-4.533-4.523-8.782z" fill="#fff"/><path d="M1.998 11.553h44.938v1.004H1.998v-1.005zm133.814 0H89.876v1.004h45.936v-1.005z" fill="#fff"/></svg>