<svg width="37" height="56" viewBox="0 0 37 56" fill="none" xmlns="http://www.w3.org/2000/svg"><path d="M18.363 9.465v9.465h.992V9.465h-.992z" fill="#fff"/><path fill-rule="evenodd" clip-rule="evenodd" d="M.86 18.14C.86 8.123 8.917 0 18.86 0c9.94 0 18 8.122 18 18.14v19.72c0 10.018-8.06 18.14-18 18.14-9.942 0-18-8.122-18-18.14V18.14zm35.007 0v19.72c0 9.466-7.615 17.14-17.008 17.14-9.393 0-17.008-7.674-17.008-17.14V18.14C1.851 8.675 9.466 1 18.86 1c9.393 0 17.008 7.674 17.008 17.14z" fill="#fff"/></svg>