<svg width="122" height="123" viewBox="0 0 122 123" fill="none" xmlns="http://www.w3.org/2000/svg"><path d="M44.019 48.527a.86.86 0 001.455-.917c-.321-.51-.554-1.166-.688-1.914.746.134 1.403.369 1.912.688a.86.86 0 00.916-1.456c-.795-.5-1.82-.842-2.957-.995.028-1.245.295-2.58.845-3.834.653-1.489 1.704-2.861 3.224-3.817 1.198-.755 2.696-1.258 4.532-1.368 1.7.093 3.322.343 4.74.803 2.39.776 4.185 2.16 4.72 4.423.075.324.129.664.155 1.023.093 1.281-.425 2.623-1.53 3.685-1.028.988-2.559 1.739-4.582 2.002a.86.86 0 00-.587 1.357c1.694 2.505 2.173 4.864 1.783 6.74-.211 1.021-.686 1.9-1.358 2.575-.672.673-1.55 1.148-2.571 1.359-1.88.39-4.244-.09-6.755-1.802a.858.858 0 00-1.334.602c-.263 2.024-1.01 3.558-2 4.588-1.06 1.106-2.4 1.624-3.681 1.531a6.32 6.32 0 01-1.022-.155c-2.26-.535-3.642-2.335-4.418-4.725-.459-1.42-.709-3.042-.802-4.745.11-1.838.612-3.338 1.367-4.537.957-1.521 2.325-2.574 3.812-3.228a10.173 10.173 0 013.83-.846c.153 1.14.494 2.164.994 2.96v.003zm-.095-9.114a11.967 11.967 0 00-.987 4.434c-1.442.039-2.98.354-4.43.988-1.628.716-3.144 1.838-4.275 3.433.2-1.746.504-3.425.853-4.905.617-2.606.905-4.718.96-6.414 1.693-.054 3.801-.343 6.407-.96a42.88 42.88 0 014.899-.855c-1.593 1.133-2.714 2.65-3.43 4.281l.003-.002zm9.392-6.22l-.03-.003a34.765 34.765 0 00-4.314.056 44.5 44.5 0 00-6.908 1.06c-2.547.604-4.526.906-6.043.997-.212-2.952-1.317-4.206-2.494-4.484-.99-.235-2.01.177-2.718.885-.707.707-1.116 1.73-.883 2.72.278 1.178 1.532 2.285 4.478 2.497-.09 1.519-.392 3.5-.996 6.05a44.667 44.667 0 00-1.058 6.915 34.862 34.862 0 00-.056 4.32l.002.03c.1 1.853.375 3.635.884 5.21.955 2.95 2.72 5.183 5.664 5.88.407.097.836.162 1.291.194 1.776.127 3.612-.567 5.041-2.058.998-1.04 1.798-2.47 2.229-4.277 2.536 1.433 4.955 1.8 6.97 1.379 1.36-.283 2.532-.92 3.44-1.825.905-.907 1.54-2.082 1.823-3.444.418-2.017.052-4.44-1.377-6.978 1.804-.431 3.233-1.232 4.271-2.23 1.49-1.431 2.184-3.27 2.056-5.047a8.278 8.278 0 00-.194-1.293c-.696-2.945-2.926-4.712-5.873-5.67-1.573-.511-3.353-.785-5.205-.885zM99.474 2.816a.858.858 0 100-1.717l-86.304.01a33.68 33.68 0 00-1.802-.088.847.847 0 00-.399.09H5.58A63.862 63.862 0 001.894 1a.842.842 0 00-.426.114h-.61A.858.858 0 000 1.972l.241 98.473a.858.858 0 101.716 0l-.017-6.744c.036.084.075.17.118.254 1.358 2.751 3.6 4.372 5.983 4.853a7.604 7.604 0 005.347-.88l.052 15.731a.858.858 0 101.716 0L15.1 96.592c.18-.183.355-.38.526-.585 1.937-2.367 2.993-6.16 2.088-11.355a.862.862 0 10-1.698.289c.81 4.647-.071 7.961-1.718 9.974-.78.952-1.735 1.612-2.761 1.979a5.916 5.916 0 01-3.162.229c-1.886-.382-3.672-1.692-4.778-3.93-.795-1.611-.2-3.374.931-4.606a5.26 5.26 0 011.824-1.303c.622-.259 1.265-.356 1.85-.23.997.213 1.887 1.115 2.313 3.024a.858.858 0 101.677-.371c-.601-2.69-2.01-3.994-3.634-4.341-.941-.2-1.933-.063-2.866.326a6.99 6.99 0 00-2.429 1.728 6.934 6.934 0 00-1.334 2.101l-.164-66.763c1.229 3.994 3.037 7.759 5.196 10.935 1.595 2.563 3.14 5.56 4.283 8.51 1.065 2.753 1.778 5.454 1.843 7.696.054 1.832-.22 3.845-1.06 6.104-.716 1.92-1.837 4.022-3.514 6.341-1.347 1.696-2.472 3.42-3.228 4.829a.863.863 0 00-.048.852c.916 1.838 2.453 4.25 4.317 6.466 1.705 2.026 3.688 3.893 5.731 5.023 2.183 1.209 4.446 1.6 6.563.544a6.574 6.574 0 001.295-.863c1.142-.964 1.838-2.451 1.828-4.175-.009-1.471-.535-3.113-1.744-4.727a.859.859 0 10-1.375 1.031c.972 1.297 1.392 2.578 1.399 3.703.008 1.197-.455 2.213-1.216 2.854a4.83 4.83 0 01-.959.634c-1.534.766-3.256.436-4.966-.509-1.849-1.022-3.668-2.742-5.245-4.62-1.632-1.939-3-4.043-3.886-5.734a30.82 30.82 0 011.866-2.9c.34-.434.666-.863.972-1.284.382-.481.785-.962 1.203-1.433 1.633-1.838 3.5-3.51 5.37-4.479 1.736-.9 3.468-1.182 4.98-.375.312.166.624.386.937.664.743.663 1.179 1.69 1.14 2.885-.037 1.124-.494 2.395-1.5 3.666a.859.859 0 001.347 1.064c1.252-1.582 1.821-3.209 1.87-4.678.059-1.726-.596-3.232-1.71-4.227a6.588 6.588 0 00-1.274-.893c-2.089-1.116-4.36-.785-6.576.362-.793.41-1.578.928-2.343 1.52.136-.318.259-.63.375-.941.927-2.49 1.229-4.72 1.168-6.752-.07-2.455-.825-5.35-1.957-8.27a48.08 48.08 0 00-.933-2.233c.976.84 1.985 1.556 3.011 2.132 1.946 1.094 3.964 1.683 5.974 1.637 2.27-.051 4.498-.906 6.565-2.746.893-.794 1.326-1.649 1.343-2.58.017-.89-.362-1.785-1.095-2.71-2.65-3.354-6.358-4.896-10.2-6.493C9.915 25.431 1.764 22.042 1.717 2.893v-.065h3.758c15.992 1.008 19.141 8.596 22.087 15.697 1.595 3.847 3.136 7.558 6.486 10.212.924.734 1.819 1.113 2.707 1.096.93-.017 1.784-.451 2.577-1.344 1.839-2.07 2.692-4.298 2.744-6.572.045-2.013-.543-4.033-1.636-5.981a18.877 18.877 0 00-2.164-3.055c.759.34 1.522.662 2.28.955 2.916 1.131 5.809 1.888 8.261 1.96 2.03.058 4.257-.244 6.744-1.17.324-.12.649-.25.98-.393a15.566 15.566 0 00-1.439 2.244c-1.146 2.218-1.476 4.492-.362 6.583.237.443.532.87.892 1.275.992 1.116 2.498 1.772 4.223 1.713 1.467-.05 3.092-.619 4.672-1.872a.859.859 0 00-1.062-1.349c-1.27 1.008-2.54 1.463-3.662 1.502-1.192.04-2.22-.397-2.882-1.142a4.878 4.878 0 01-.663-.938c-.807-1.512-.524-3.247.374-4.984.968-1.873 2.639-3.742 4.475-5.377.34-.304.687-.6 1.036-.885a44.363 44.363 0 001.602-1.206.949.949 0 00.125-.12 31.133 31.133 0 012.847-1.834c1.69.886 3.791 2.258 5.728 3.89 1.876 1.581 3.593 3.402 4.615 5.251.944 1.711 1.274 3.435.508 4.971a4.826 4.826 0 01-.633.96c-.64.762-1.655 1.224-2.852 1.218-1.122-.007-2.403-.43-3.698-1.4a.859.859 0 10-1.03 1.376c1.614 1.21 3.254 1.734 4.722 1.745 1.722.011 3.21-.686 4.17-1.83.36-.427.645-.86.862-1.296 1.057-2.119.664-4.382-.543-6.57-1.129-2.048-2.993-4.033-5.017-5.737-2.213-1.866-4.623-3.405-6.46-4.322a.86.86 0 00-.85.048c-1.511.813-3.386 2.052-5.199 3.534-2.216 1.575-4.229 2.643-6.078 3.333-2.256.842-4.267 1.116-6.097 1.062-2.242-.065-4.938-.777-7.688-1.845-3.235-1.254-6.522-2.995-9.235-4.753-.03-.02-.063-.037-.093-.054-2.937-1.888-6.33-3.476-9.907-4.6l66.554-.007a6.965 6.965 0 00-2.03 1.308 6.997 6.997 0 00-1.727 2.432c-.388.934-.526 1.928-.325 2.87.344 1.624 1.648 3.033 4.336 3.637a.86.86 0 00.37-1.679c-1.907-.427-2.81-1.318-3.021-2.315-.125-.585-.028-1.227.23-1.853a5.286 5.286 0 011.302-1.826c1.233-1.132 2.994-1.728 4.602-.932 2.235 1.105 3.543 2.894 3.925 4.784a5.914 5.914 0 01-.229 3.165c-.366 1.027-1.024 1.983-1.976 2.764-2.009 1.648-5.32 2.53-9.964 1.72a.861.861 0 10-.289 1.7c5.192.906 8.979-.15 11.343-2.091.205-.168.401-.345.584-.526l17.048.056a.857.857 0 00.858-.86.857.857 0 00-.858-.858l-15.713-.052a7.628 7.628 0 00.88-5.353c-.484-2.386-2.1-4.63-4.848-5.99-.072-.034-.143-.068-.216-.1h6.699-.005zm5.283 6.275a.858.858 0 000 1.717h16.386a.858.858 0 100-1.717h-16.386zM33.135 32.5c.63.149 1.183.94 1.284 2.82-1.877-.102-2.668-.656-2.817-1.286-.086-.37.108-.79.425-1.11.319-.319.74-.513 1.108-.424zM9.942 105.732a.862.862 0 10-1.724 0v16.404a.862.862 0 101.724 0v-16.404zM8.386 32.728a46.2 46.2 0 00-.453-.712.906.906 0 00-.105-.131c-2.664-4.162-4.696-9.271-5.593-14.506 3.114 8.018 9.007 10.469 14.615 12.801 3.636 1.513 7.146 2.971 9.513 5.966.483.61.733 1.148.724 1.618-.009.428-.256.863-.77 1.32-1.743 1.554-3.59 2.273-5.452 2.316-1.688.039-3.412-.475-5.1-1.422-1.73-.973-3.42-2.404-4.993-4.173a30.42 30.42 0 01-2.386-3.074v-.003zm7.979-29.494c7.024 1.206 13.82 4.464 18.404 8.546 1.767 1.575 3.196 3.265 4.168 5 .948 1.689 1.459 3.415 1.42 5.104-.043 1.862-.76 3.714-2.313 5.46-.456.513-.892.76-1.319.77-.47.008-1.006-.242-1.616-.726-2.992-2.37-4.448-5.883-5.96-9.523-2.327-5.614-4.775-11.513-12.786-14.631h.002z" fill="#fff"/></svg>