<svg width="122" height="123" viewBox="0 0 122 123" fill="none" xmlns="http://www.w3.org/2000/svg"><path d="M77.981 74.473a.86.86 0 00-1.455.917c.322.509.554 1.165.688 1.913-.746-.133-1.403-.368-1.912-.688a.86.86 0 00-.916 1.457c.796.5 1.82.841 2.957.994a10.216 10.216 0 01-.845 3.834c-.653 1.49-1.704 2.861-3.224 3.817-1.198.755-2.696 1.258-4.532 1.368-1.7-.092-3.322-.343-4.74-.802-2.39-.777-4.185-2.16-4.72-4.424a6.585 6.585 0 01-.155-1.022c-.093-1.282.425-2.624 1.53-3.686 1.028-.988 2.559-1.739 4.582-2.002a.86.86 0 00.587-1.357c-1.694-2.505-2.173-4.863-1.783-6.74.211-1.021.686-1.9 1.358-2.575.672-.673 1.55-1.148 2.571-1.359 1.88-.39 4.244.09 6.755 1.802a.858.858 0 001.334-.602c.263-2.024 1.01-3.558 2-4.587 1.06-1.107 2.4-1.625 3.681-1.532a6.32 6.32 0 011.022.155c2.26.535 3.642 2.334 4.418 4.725.459 1.42.709 3.043.802 4.745-.11 1.838-.612 3.338-1.367 4.537-.957 1.522-2.325 2.575-3.812 3.228-1.253.55-2.585.818-3.83.846-.153-1.14-.494-2.164-.994-2.96v-.002zm.095 9.114c.634-1.448.948-2.99.987-4.434a11.942 11.942 0 004.43-.989c1.629-.716 3.144-1.838 4.275-3.432a43.003 43.003 0 01-.853 4.904c-.617 2.606-.906 4.719-.96 6.415-1.693.054-3.801.343-6.407.96a42.97 42.97 0 01-4.899.854c1.593-1.133 2.714-2.65 3.43-4.28l-.003.002zm-9.392 6.22l.03.002c1.418.076 2.875.048 4.314-.056a44.488 44.488 0 006.908-1.06c2.547-.603 4.526-.906 6.043-.996.212 2.952 1.317 4.205 2.494 4.483.99.236 2.01-.176 2.718-.884.707-.708 1.116-1.73.883-2.72-.278-1.179-1.532-2.286-4.478-2.497.09-1.52.392-3.5.995-6.05a44.668 44.668 0 001.059-6.916c.103-1.441.131-2.9.056-4.32l-.002-.03c-.1-1.853-.375-3.635-.884-5.21-.955-2.95-2.72-5.183-5.664-5.88a8.01 8.01 0 00-1.291-.194c-1.776-.127-3.612.567-5.041 2.058-.998 1.04-1.798 2.47-2.229 4.277-2.536-1.433-4.955-1.8-6.97-1.379-1.36.283-2.532.92-3.44 1.825-.905.907-1.54 2.083-1.823 3.444-.418 2.018-.052 4.44 1.377 6.978-1.804.431-3.233 1.232-4.271 2.23-1.49 1.431-2.184 3.27-2.057 5.048.033.455.1.884.194 1.292.697 2.945 2.927 4.713 5.873 5.67 1.574.512 3.354.786 5.205.885zm-46.157 30.376a.858.858 0 100 1.717l86.304-.011c.602.046 1.203.076 1.802.089.145.002.28-.03.399-.091h5.388c1.164.071 2.39.11 3.686.114a.843.843 0 00.426-.114h.61a.858.858 0 00.858-.859l-.241-98.475a.858.858 0 10-1.716 0l.017 6.745a4.161 4.161 0 00-.118-.255c-1.358-2.75-3.6-4.371-5.983-4.852a7.605 7.605 0 00-5.347.88L108.56 9.34a.858.858 0 10-1.716 0l.056 17.067c-.181.183-.355.38-.526.584-1.937 2.367-2.993 6.16-2.088 11.356.08.468.524.785.994.706a.863.863 0 00.704-.995c-.81-4.648.071-7.962 1.718-9.975.78-.951 1.735-1.612 2.761-1.978a5.916 5.916 0 013.162-.23c1.886.383 3.672 1.692 4.778 3.93.795 1.612.2 3.374-.931 4.606a5.263 5.263 0 01-1.824 1.304c-.622.259-1.265.356-1.851.23-.996-.213-1.886-1.115-2.312-3.025a.858.858 0 00-1.024-.653.857.857 0 00-.653 1.025c.601 2.69 2.011 3.993 3.634 4.34.941.202 1.933.063 2.866-.325a6.995 6.995 0 002.429-1.728 6.942 6.942 0 001.334-2.102l.164 66.765c-1.229-3.994-3.037-7.76-5.196-10.936-1.595-2.563-3.141-5.56-4.283-8.51-1.065-2.752-1.778-5.454-1.843-7.696-.054-1.831.22-3.845 1.061-6.104.715-1.92 1.836-4.021 3.513-6.341 1.347-1.696 2.472-3.42 3.228-4.829a.862.862 0 00.048-.852c-.916-1.838-2.453-4.25-4.317-6.467-1.705-2.026-3.688-3.892-5.731-5.023-2.183-1.208-4.446-1.598-6.563-.543a6.574 6.574 0 00-1.295.863c-1.142.964-1.838 2.45-1.828 4.175.009 1.471.535 3.113 1.744 4.727a.859.859 0 101.375-1.031c-.972-1.297-1.392-2.578-1.399-3.703-.008-1.197.455-2.213 1.216-2.854a4.83 4.83 0 01.959-.635c1.534-.766 3.256-.435 4.966.51 1.849 1.022 3.668 2.742 5.245 4.62 1.632 1.939 3 4.043 3.886 5.734a30.746 30.746 0 01-1.866 2.9 43.09 43.09 0 00-.972 1.284c-.382.481-.785.962-1.203 1.433-1.633 1.838-3.5 3.51-5.371 4.479-1.735.9-3.467 1.182-4.978.375a4.813 4.813 0 01-.938-.664c-.743-.663-1.179-1.69-1.14-2.885.037-1.124.494-2.395 1.5-3.666a.859.859 0 00-1.347-1.064c-1.252 1.582-1.821 3.209-1.87 4.678-.059 1.726.596 3.232 1.71 4.227.406.36.83.656 1.274.893 2.089 1.116 4.36.786 6.576-.362.793-.41 1.578-.928 2.343-1.52-.136.318-.259.63-.375.942-.927 2.49-1.229 4.718-1.168 6.75.071 2.456.825 5.352 1.957 8.271.288.744.601 1.491.933 2.233a18.697 18.697 0 00-3.011-2.132c-1.946-1.093-3.964-1.682-5.974-1.637-2.27.052-4.498.906-6.565 2.747-.893.794-1.326 1.648-1.343 2.58-.017.89.362 1.784 1.095 2.71 2.65 3.353 6.358 4.896 10.201 6.493 7.595 3.156 15.746 6.546 15.793 25.695v.065h-3.758c-15.992-1.008-19.141-8.596-22.088-15.697-1.594-3.847-3.135-7.558-6.485-10.212-.924-.734-1.819-1.114-2.707-1.096-.93.017-1.784.45-2.577 1.344-1.839 2.069-2.692 4.298-2.744 6.572-.045 2.013.543 4.033 1.636 5.981a18.868 18.868 0 002.164 3.055 47.023 47.023 0 00-2.28-.956c-2.916-1.13-5.809-1.888-8.261-1.959-2.03-.058-4.257.244-6.744 1.17-.324.121-.649.25-.98.392a15.496 15.496 0 001.439-2.244c1.146-2.218 1.476-4.492.362-6.583a6.652 6.652 0 00-.892-1.275c-.992-1.115-2.498-1.771-4.223-1.713-1.467.05-3.092.62-4.672 1.873a.859.859 0 001.062 1.348c1.27-1.007 2.54-1.462 3.662-1.501 1.192-.041 2.22.397 2.882 1.141.276.311.495.624.663.939.807 1.512.524 3.247-.374 4.984-.968 1.873-2.639 3.741-4.475 5.377-.34.304-.687.6-1.036.884-.524.376-1.056.777-1.602 1.207a.911.911 0 00-.125.12 30.993 30.993 0 01-2.847 1.834c-1.69-.886-3.791-2.259-5.728-3.89-1.876-1.581-3.593-3.402-4.615-5.252-.944-1.711-1.274-3.435-.508-4.971.165-.332.375-.654.633-.96.64-.762 1.655-1.223 2.852-1.217 1.122.007 2.403.43 3.698 1.4a.858.858 0 101.03-1.376c-1.614-1.21-3.254-1.735-4.722-1.746-1.722-.01-3.21.686-4.17 1.83-.36.427-.645.86-.863 1.297-1.056 2.119-.663 4.382.544 6.57 1.129 2.047 2.993 4.032 5.017 5.737 2.213 1.866 4.623 3.405 6.46 4.322a.86.86 0 00.85-.048c1.511-.813 3.387-2.052 5.199-3.534 2.216-1.575 4.229-2.643 6.078-3.334 2.256-.841 4.267-1.115 6.097-1.061 2.242.065 4.938.777 7.688 1.845 3.235 1.253 6.522 2.995 9.235 4.753.03.019.063.037.093.054 2.937 1.888 6.33 3.476 9.907 4.6l-66.554.007a6.973 6.973 0 002.03-1.308 6.988 6.988 0 001.727-2.432c.388-.934.526-1.929.325-2.869-.345-1.625-1.648-3.034-4.336-3.638a.86.86 0 00-.37 1.679c1.907.427 2.81 1.318 3.021 2.315.125.584.028 1.227-.23 1.853a5.276 5.276 0 01-1.302 1.825c-1.233 1.133-2.994 1.729-4.602.933-2.235-1.105-3.543-2.894-3.925-4.784a5.914 5.914 0 01.229-3.165c.366-1.027 1.024-1.983 1.976-2.764 2.009-1.649 5.32-2.531 9.964-1.72a.861.861 0 10.289-1.7c-5.192-.906-8.979.149-11.343 2.091a8.449 8.449 0 00-.584.526l-17.048-.056a.858.858 0 00-.858.859c0 .475.383.859.858.859l15.714.051a7.628 7.628 0 00-.88 5.353c.483 2.387 2.1 4.631 4.847 5.99.072.035.143.069.216.102h-6.699.005zm-5.283-6.275a.858.858 0 100-1.717H.858a.858.858 0 100 1.717h16.386zM88.865 90.5c-.63-.15-1.183-.941-1.284-2.82 1.877.101 2.668.656 2.817 1.286.086.369-.108.79-.425 1.109-.319.319-.74.513-1.108.425zm23.193-73.233a.862.862 0 101.724 0V.862a.862.862 0 10-1.724 0v16.405zm1.556 73.004c.151.242.302.479.453.712a.869.869 0 00.105.132c2.664 4.162 4.696 9.271 5.593 14.506-3.114-8.018-9.007-10.47-14.615-12.802-3.636-1.512-7.147-2.97-9.513-5.966-.483-.61-.733-1.148-.724-1.618.008-.427.256-.863.77-1.32 1.743-1.554 3.59-2.273 5.452-2.316 1.688-.038 3.412.475 5.099 1.422 1.731.973 3.421 2.404 4.994 4.173a30.367 30.367 0 012.386 3.075v.002zm-7.979 29.495c-7.024-1.206-13.82-4.464-18.404-8.546-1.767-1.575-3.196-3.265-4.168-5-.948-1.689-1.459-3.415-1.42-5.105.043-1.862.76-3.713 2.313-5.459.456-.513.892-.761 1.319-.77.47-.008 1.006.242 1.616.725 2.991 2.371 4.448 5.884 5.96 9.524 2.327 5.614 4.775 11.513 12.786 14.631h-.002z" fill="#fff"/></svg>