<svg width="380" height="75" viewBox="0 0 380 75" fill="none" xmlns="http://www.w3.org/2000/svg"><path d="M371.663 32.544c-2.43.309-6.81 2.207-24.813 2.469-12.237-.136-24.093-1.603-35.22-3.133-17.333-2.406-36.266-5.308-53.78-4.415-13.864.688-23.441 3.878-29.291 7.1-6.725 3.744-11.815 9.38-10.867 9.933.02.067.629-.017 1.756-.17 44.572-4.247 26.757 30.015 26.757 30.015s21.92-4.35 18.314-20.085c-1.203-5.248-5.161-8.367-10.287-10.14 14.873 1.431 27.138 3.831 42.583 5.722 17.857 2.158 38.057 2.722 55.145-1.912 13.776-3.734 21.094-10.416 20.792-10.19l7.228-6.905-8.317 1.71zm-4.597 5.393c-17.693 12.147-47.043 12.072-69.87 9.61-19.324-2.108-37.965-5.651-56.791-5.607-7.193-.012-12.945.564-16.825 1.203-1.604.264-3.55.633-5.099 1.067 1.808-1.209 4.551-4.212 11.545-7.678 5.638-2.753 14.676-5.55 28.024-6.055 17.152-.664 35.818 2.256 52.938 4.634 11.168 1.532 23.226 3.014 35.845 3.11 8.324-.146 14.31-.42 22.415-2.006-1.349 1.06-2.476 1.946-2.182 1.722zM58.731 51.456c19.412.008 37.17-3.46 52.392-5.529a348.264 348.264 0 0115.01-1.82c-5.142 1.772-9.114 4.893-10.32 10.152-3.606 15.734 18.314 20.084 18.314 20.084s-17.814-34.26 26.755-30.015c1.107.151 1.739.233 1.758.171.806-.475-3.471-5.897-10.8-9.994-21.47-11.771-57.801-6.33-83.117-2.625-22.541 3.167-39.846 4.757-60.67.48-2.682-.562-5.376-1.25-8.053-1.872l4.494 4.318c14.073 13.202 32.989 16.672 54.237 16.65zm10.642-16.348c24.628-3.606 59.448-9.09 81.004 1.367 6.93 3.45 9.668 6.573 11.428 7.723-3.644-1.015-9.135-1.701-13.338-1.983-12.236-.833-25.557.33-37.701 1.838-15.376 1.826-33.053 5.015-52.02 4.802-14.717-.133-29.177-2.073-41.555-8.504-2.592-1.536-6.37-4.073-6.08-4.125 21.134 3.24 35.509 2.078 58.262-1.118z" fill="#3B181E"/><path d="M166.968 48.568c-6.363.964-10.742 4.586-11.756 9.462-.949 4.772 1.544 9.881 7.064 12.287 4.376 2.134 10.764 1.677 13.977-1.478 3.486-3.162 1.19-8.47-2.641-9.184-.616-.12-.947-.123-.947-.123-.071.042 1.508.131 2.809 1.65 1.599 1.916 1.599 4.777-.672 6.524-2.335 1.828-6.632 2.477-11.041.395-3.769-1.77-5.995-5.809-5.134-9.581.774-4.09 4.865-6.752 8.928-7.468 4.222-.776 8.119.266 11.987 2.013 4.702 2.21 7.523 4.292 10.623 6.31-10.166-9.45-20.849-17.449-29.024-27.985-3.858-5.066-7.743-12.286-4.979-17.826.163-.313.609-1.172 1.17-1.704 1.189-.174 3.653.07 6.259 1.222 4.88 2.17 8.652 6.564 10.927 10.724l4.08 7.444 4.805-1.068-.779-7.478c-.246-2.491-.337-4.79.15-7.164 1.594-9.022 7.168-10.413 7.405-10.653 3.609 1.851 6.247 4.482 7.365 10.546.49 2.384.429 4.672.187 7.165l-.747 7.479 4.804 1.062 4.067-7.41a27.292 27.292 0 014.677-6.256c2.843-2.875 8.074-6.242 12.471-5.614 2.469 2.39 2.389 6.696 1.497 9.76-1.004 3.594-3.097 6.86-5.303 9.77-8.116 10.49-18.848 18.55-29.033 27.985 4.779-3.11 10.092-6.894 16.228-8.211 7.62-1.618 11.971 2.362 12.26 2.443 1.62 1.28 2.696 3.04 3.051 4.913.859 3.773-1.366 7.811-5.135 9.581-4.407 2.081-8.705 1.435-11.042-.394-1.285-.989-1.796-2.263-1.796-3.493-.001-1.227.507-2.29 1.124-3.03 1.302-1.52 2.88-1.61 2.81-1.65 0 0-.332.002-.947.122-3.901.728-6.081 6.066-2.642 9.184 3.225 3.166 9.621 3.602 13.978 1.478 5.509-2.401 8.015-7.505 7.064-12.287-1.515-7.29-10.919-11.846-20.688-8.477 6.561-5.04 12.739-10.424 17.828-16.489 2.46-3.01 4.894-6.453 6.225-10.614 1.573-4.838 1.134-10.593-3.12-13.979-6.813-1.635-13.842 1.863-18.508 6.419-1.398 1.349-2.675 2.88-3.795 4.467.013-1.512-.082-3.055-.386-4.558-1.167-6.47-4.942-12.862-12.492-14.481l-.298.066c-7.259 1.455-11.17 8.34-12.242 14.536-.295 1.468-.384 2.97-.368 4.441-2.773-3.935-6.596-7.616-11.54-9.72-3.38-1.425-7.103-2.047-10.762-1.17-1.36 1.083-2.204 2.303-2.897 3.752-3.179 6.858 1.031 14.782 6.008 20.845 5.076 6.032 11.351 11.513 17.832 16.49-2.81-.97-5.601-1.507-8.946-.99z" fill="#3B181E"/></svg>